<mxfile host="app.diagrams.net" modified="2023-12-05T14:07:54.230Z" agent="Mozilla/5.0 (Windows NT 10.0; Win64; x64) AppleWebKit/537.36 (KHTML, like Gecko) Chrome/119.0.0.0 Safari/537.36 Edg/119.0.0.0" version="22.1.5" etag="WwwxJDHI6WhL2vygi2Kc" type="github">
  <diagram name="PÃ¡gina-1" id="Qioed6Zwn6un1jtIWEBO">
    <mxGraphModel>
      <root>
        <mxCell id="0" />
        <mxCell id="1" parent="0" />
      </root>
    </mxGraphModel>
  </diagram>
</mxfile>
